<svg width="28" height="28" viewBox="0 0 28 28" fill="none" xmlns="http://www.w3.org/2000/svg">
    <path fill-rule="evenodd" clip-rule="evenodd"
        d="M8.94801 2.33252H19.063C23.018 2.33252 25.6663 5.10919 25.6663 9.23919V18.772C25.6663 22.8904 23.018 25.6659 19.063 25.6659H8.94801C4.99301 25.6659 2.33301 22.8904 2.33301 18.772V9.23919C2.33301 5.10919 4.99301 2.33252 8.94801 2.33252ZM17.5113 17.4992C17.908 17.1037 17.908 16.462 17.5113 16.0654L15.4347 13.9887L17.5113 11.9109C17.908 11.5154 17.908 10.862 17.5113 10.4654C17.1147 10.0675 16.473 10.0675 16.0647 10.4654L13.9997 12.5409L11.923 10.4654C11.5147 10.0675 10.873 10.0675 10.4763 10.4654C10.0797 10.862 10.0797 11.5154 10.4763 11.9109L12.553 13.9887L10.4763 16.0537C10.0797 16.462 10.0797 17.1037 10.4763 17.4992C10.6747 17.6975 10.943 17.8037 11.1997 17.8037C11.468 17.8037 11.7247 17.6975 11.923 17.4992L13.9997 15.4354L16.0763 17.4992C16.2747 17.7104 16.5313 17.8037 16.788 17.8037C17.0563 17.8037 17.313 17.6975 17.5113 17.4992Z"
        fill="url(#paint0_linear_1234_24384)" />
    <defs>
        <linearGradient id="paint0_linear_1234_24384" x1="25.6663" y1="25.6659" x2="-2.09823"
            y2="17.6158" gradientUnits="userSpaceOnUse">
            <stop stop-color="#FF4D67" />
            <stop offset="1" stop-color="#FF8A9B" />
        </linearGradient>
    </defs>
</svg>
    