<svg width="70" height="31" viewBox="0 0 60 61" fill="none" xmlns="http://www.w3.org/2000/svg">
<rect y="0.542969" width="60" height="60" rx="30" fill="url(#paint0_linear_6207_371)"/>
<path d="M27.5969 49.543C27.5969 49.543 30.3926 43.83 28.5217 40.2174C27.6069 38.4509 25.9605 37.4086 24.3929 36.4162C22.7546 35.379 21.2022 34.3962 20.6605 32.6982C20.6605 32.6982 18.8106 33.4543 19.6936 35.5966C20.5766 37.739 22.3 38.7892 22.3 38.7892C14.7536 35.6025 12.8163 32.4834 13.724 24.3808C11.5818 29.3381 11.4538 32.7822 13.2407 36.3948C15.0277 40.0074 17.2341 41.5616 22.0057 44.5021C26.7774 47.4426 27.5969 49.543 27.5969 49.543Z" fill="white"/>
<path d="M32.4031 49.543C32.4031 49.543 29.6074 43.83 31.4782 40.2174C32.3931 38.4509 34.0395 37.4086 35.6071 36.4162C37.2454 35.379 38.7978 34.3962 39.3395 32.6982C39.3395 32.6982 41.1894 33.4543 40.3064 35.5966C39.4234 37.739 37.7 38.7892 37.7 38.7892C45.2464 35.6025 47.1837 32.4834 46.276 24.3808C48.4182 29.3381 48.5463 32.7822 46.7593 36.3948C44.9723 40.0074 42.7659 41.5616 37.9943 44.5021C33.2226 47.4426 32.4031 49.543 32.4031 49.543Z" fill="white"/>
<path fill-rule="evenodd" clip-rule="evenodd" d="M34.3625 13.5431C35.0787 13.5431 35.7938 13.6441 36.4736 13.8721C40.6631 15.2331 42.1727 19.8265 40.9116 23.8415C40.1966 25.8932 39.0275 27.7657 37.4963 29.2957C35.3046 31.4166 32.8994 33.2994 30.3104 34.9212L30.0266 35.0925L29.7315 34.9099C27.1334 33.2994 24.7146 31.4166 22.5024 29.2844C20.9815 27.7544 19.8113 25.8932 19.0848 23.8415C17.8022 19.8265 19.3118 15.2331 23.5467 13.8482C23.8758 13.7348 24.2152 13.6554 24.5557 13.6112L24.8849 13.543C25.2095 13.543 25.3076 13.543 25.3916 13.5431C25.4544 13.5431 25.5093 13.5431 25.6454 13.5431H25.7702C26.4853 13.5647 27.1777 13.6895 27.8485 13.9174H27.9154C27.9608 13.939 27.9949 13.9628 28.0176 13.9843C28.2684 14.0649 28.5057 14.1556 28.7327 14.2804L29.164 14.4732C29.2682 14.5287 29.3852 14.6136 29.4863 14.6869C29.5504 14.7334 29.608 14.7753 29.6521 14.8021C29.6706 14.813 29.6894 14.824 29.7084 14.8351C29.8057 14.8918 29.9071 14.951 29.9926 15.0164C31.2536 14.0535 32.7848 13.5318 34.3625 13.5431ZM30.6346 19.4796C30.4643 19.3094 30.2334 19.2139 29.9925 19.2139C29.7517 19.2139 29.5208 19.3094 29.3505 19.4796C29.1802 19.6498 29.0845 19.8806 29.0845 20.1212V22.8432H26.3604C26.1196 22.8432 25.8886 22.9388 25.7183 23.109C25.5481 23.2791 25.4524 23.5099 25.4524 23.7506C25.4524 23.9912 25.5481 24.222 25.7183 24.3921C25.8886 24.5623 26.1196 24.6579 26.3604 24.6579H29.0845V27.3799C29.0845 27.6206 29.1802 27.8514 29.3505 28.0215C29.5208 28.1917 29.7517 28.2873 29.9925 28.2873C30.2334 28.2873 30.4643 28.1917 30.6346 28.0215C30.8049 27.8514 30.9006 27.6206 30.9006 27.3799V24.6579H33.6247C33.8655 24.6579 34.0965 24.5623 34.2668 24.3921C34.437 24.222 34.5327 23.9912 34.5327 23.7506C34.5327 23.5099 34.437 23.2791 34.2668 23.109C34.0965 22.9388 33.8655 22.8432 33.6247 22.8432H30.9006V20.1212C30.9006 19.8806 30.8049 19.6498 30.6346 19.4796Z" fill="white"/>
<defs>
<linearGradient id="paint0_linear_6207_371" x1="60" y1="60.543" x2="-11.3946" y2="39.8428" gradientUnits="userSpaceOnUse">
<stop stop-color="#246BFD"/>
<stop offset="1" stop-color="#5089FF"/>
</linearGradient>
</defs>
</svg>
